<svg width="180" height="180" viewBox="0 0 180 180" fill="none" xmlns="http://www.w3.org/2000/svg">
<path d="M164.601 88.0231C164.132 87.1792 163.259 86.6869 162.319 86.6869H146.279C145.272 86.6869 144.332 87.3198 143.863 88.2341C137.822 100.823 131.647 113.833 122.251 118.475C119.164 116.857 116.345 114.255 113.66 110.458C124.198 98.9942 133.594 81.2013 141.983 56.7977C142.252 55.9538 142.185 54.9692 141.648 54.1956C141.178 53.422 140.305 53 139.433 53H123.392C122.251 53 121.244 53.7736 120.842 54.8285C115.607 69.9489 110.103 82.3969 104.197 92.2428C103.929 91.6098 103.66 90.9769 103.392 90.3439C95.8076 72.8324 87.2167 53 65.8739 53H49.8331C30.638 53 15 69.3863 15 89.5C15 109.614 30.638 126 49.8331 126H81.9817C92.0491 126 101.244 122.132 109.768 114.396C115.54 122.273 122.05 126 130.171 126C147.889 126 156.413 108.066 164.736 90.7659C165.138 89.8516 165.071 88.867 164.601 88.0231ZM65.8739 58.6262C83.7267 58.6262 90.9752 75.1532 98.5593 92.6647C99.2976 94.3526 100.036 96.0405 100.774 97.7283C99.0291 100.26 97.2841 102.581 95.472 104.691C88.6261 89.4297 79.2299 68.5424 65.7396 58.6965C65.7396 58.6262 65.8067 58.6262 65.8739 58.6262ZM20.3693 89.5C20.3693 73.395 32.1817 60.1734 47.2156 58.7668C37.5509 65.237 31.1078 76.6301 31.1078 89.5C31.1078 102.44 37.5509 113.763 47.2156 120.233C32.1817 118.827 20.3693 105.605 20.3693 89.5ZM65.8739 120.374C49.6318 120.374 36.41 106.519 36.41 89.5C36.41 75.7158 45.0679 64.0414 56.9474 60.1031C72.317 66.3622 83.5925 91.4692 90.7067 107.363L91.445 108.981C83.5253 116.576 75.0687 120.374 65.8739 120.374ZM108.694 107.715C108.358 107.996 108.09 108.207 107.888 108.559C101.11 115.24 93.8612 119.108 86.1429 120.092C101.177 110.809 114.13 90.4846 125.271 58.6262H135.607C127.553 81.2717 118.627 97.5877 108.694 107.715ZM130.171 120.374C129.97 120.374 129.701 120.303 129.5 120.303C137.285 113.904 142.722 103.073 147.89 92.2428H157.957C150.775 107.223 143.393 120.374 130.171 120.374Z" fill="#0E2245"/>
</svg>
