<svg width="180" height="180" viewBox="0 0 180 180" fill="none" xmlns="http://www.w3.org/2000/svg">
<g clip-path="url(#clip0_959_33517)">
<rect width="180" height="180" rx="30" fill="#0184FF"/>
<path d="M157.639 88.1445C157.213 87.3699 156.422 86.9181 155.57 86.9181H141.026C140.113 86.9181 139.261 87.499 138.835 88.3381C133.359 99.8921 127.76 111.833 119.241 116.093C116.442 114.609 113.886 112.221 111.452 108.735C121.006 98.2139 129.525 81.8834 137.132 59.4855C137.375 58.711 137.314 57.8073 136.827 57.0973C136.401 56.3873 135.61 56 134.819 56H120.276C119.241 56 118.328 56.71 117.963 57.6782C113.217 71.5559 108.227 82.9807 102.872 92.0173C102.629 91.4364 102.385 90.8555 102.142 90.2746C95.2655 74.2023 87.4765 56 68.1256 56H53.582C36.1784 56 22 71.0395 22 89.5C22 107.961 36.1784 123 53.582 123H82.73C91.8578 123 100.195 119.45 107.923 112.35C113.156 119.579 119.059 123 126.422 123C142.486 123 150.215 106.54 157.76 90.6618C158.125 89.8227 158.065 88.9191 157.639 88.1445ZM68.1256 61.1638C84.3122 61.1638 90.8842 76.3324 97.7604 92.4046C98.4298 93.9538 99.0992 95.5029 99.7685 97.052C98.1864 99.3757 96.6042 101.506 94.9612 103.442C88.7544 89.4355 80.2351 70.2649 68.0039 61.2283C68.0039 61.1638 68.0648 61.1638 68.1256 61.1638ZM26.8681 89.5C26.8681 74.7187 37.5781 62.5838 51.2088 61.2929C42.4462 67.2312 36.6044 77.6879 36.6044 89.5C36.6044 101.377 42.4462 111.769 51.2088 117.707C37.5781 116.416 26.8681 104.281 26.8681 89.5ZM68.1256 117.836C53.3995 117.836 41.4117 105.12 41.4117 89.5C41.4117 76.8487 49.2616 66.1339 60.0323 62.5193C73.9674 68.264 84.1905 91.3073 90.6408 105.895L91.3101 107.38C84.1296 114.351 76.4623 117.836 68.1256 117.836ZM106.949 106.218C106.645 106.476 106.401 106.67 106.219 106.992C100.073 113.124 93.5008 116.674 86.5029 117.578C100.134 109.058 111.878 90.4037 121.979 61.1638H131.351C124.048 81.948 115.955 96.9229 106.949 106.218ZM126.422 117.836C126.239 117.836 125.996 117.772 125.813 117.772C132.872 111.898 137.801 101.958 142.486 92.0173H151.614C145.103 105.766 138.409 117.836 126.422 117.836Z" fill="white"/>
</g>
<defs>
<clipPath id="clip0_959_33517">
<rect width="180" height="180" fill="white"/>
</clipPath>
</defs>
</svg>
