<svg width="500" height="500" viewBox="0 0 500 500" fill="none" xmlns="http://www.w3.org/2000/svg">
<path d="M473.804 245.549C472.395 243.006 469.777 241.522 466.958 241.522H418.836C415.816 241.522 412.997 243.43 411.588 246.185C393.466 284.123 374.942 323.333 346.754 337.322C337.492 332.447 329.035 324.605 320.981 313.16C352.593 278.613 380.781 224.99 405.95 151.445C406.755 148.902 406.554 145.934 404.943 143.603C403.534 141.272 400.916 140 398.299 140H350.177C346.754 140 343.733 142.331 342.525 145.511C326.82 191.079 310.31 228.593 292.591 258.266C291.786 256.358 290.98 254.451 290.175 252.543C267.423 199.769 241.65 140 177.622 140H129.499C71.9139 140 25 189.383 25 250C25 310.617 71.9139 360 129.499 360H225.945C256.147 360 283.732 348.343 309.303 325.029C326.619 348.767 346.15 360 370.513 360C423.668 360 449.24 305.954 474.207 253.815C475.415 251.06 475.213 248.092 473.804 245.549ZM177.622 156.956C231.18 156.956 252.926 206.763 275.678 259.538C277.893 264.624 280.108 269.711 282.322 274.798C277.087 282.428 271.852 289.422 266.416 295.78C245.878 249.788 217.69 186.84 177.219 157.168C177.219 156.956 177.42 156.956 177.622 156.956ZM41.1078 250C41.1078 201.464 76.545 161.618 121.647 157.38C92.6528 176.879 73.3235 211.214 73.3235 250C73.3235 288.998 92.6528 323.121 121.647 342.62C76.545 338.381 41.1078 298.536 41.1078 250ZM177.622 343.044C128.895 343.044 89.2299 301.291 89.2299 250C89.2299 208.459 115.204 173.275 150.842 161.407C196.951 180.27 230.777 255.934 252.12 303.834L254.335 308.709C230.576 331.599 205.206 343.044 177.622 343.044ZM306.081 304.894C305.075 305.742 304.269 306.378 303.665 307.437C283.329 327.572 261.584 339.229 238.429 342.197C283.53 314.22 322.391 252.967 355.814 156.956H386.822C362.66 225.202 335.881 274.374 306.081 304.894ZM370.513 343.044C369.909 343.044 369.103 342.832 368.499 342.832C391.856 323.545 408.165 290.906 423.669 258.266H453.871C432.326 303.41 410.178 343.044 370.513 343.044Z" fill="#0E2245"/>
</svg>
