<svg width="500" height="500" viewBox="0 0 500 500" fill="none" xmlns="http://www.w3.org/2000/svg">
<g clip-path="url(#clip0_959_33515)">
<rect width="500" height="500" rx="70" fill="#0184FF"/>
<path d="M446.948 246.075C445.707 243.832 443.404 242.524 440.923 242.524H398.576C395.918 242.524 393.437 244.206 392.197 246.636C376.25 280.091 359.949 314.667 335.143 327.002C326.993 322.703 319.551 315.788 312.463 305.696C340.282 275.231 365.088 227.946 387.236 163.092C387.945 160.85 387.768 158.233 386.35 156.177C385.11 154.121 382.806 153 380.503 153H338.155C335.143 153 332.485 155.056 331.422 157.859C317.602 198.042 303.073 231.123 287.48 257.289C286.771 255.607 286.063 253.925 285.354 252.243C265.332 205.705 242.652 153 186.307 153H143.959C93.2843 153 52 196.547 52 250C52 303.453 93.2843 347 143.959 347H228.832C255.41 347 279.684 336.721 302.187 316.162C317.425 337.094 334.612 347 356.051 347C402.828 347 425.331 299.341 447.302 253.364C448.365 250.934 448.188 248.318 446.948 246.075ZM186.307 167.952C233.438 167.952 252.575 211.873 272.597 258.41C274.546 262.896 276.495 267.381 278.444 271.867C273.837 278.595 269.23 284.763 264.446 290.37C246.373 249.813 221.567 194.304 185.953 168.139C185.953 167.952 186.13 167.952 186.307 167.952ZM66.1749 250C66.1749 207.2 97.3596 172.064 137.049 168.326C111.535 185.52 94.5246 215.798 94.5246 250C94.5246 284.389 111.535 314.48 137.049 331.674C97.3596 327.936 66.1749 292.8 66.1749 250ZM186.307 332.048C143.428 332.048 108.522 295.229 108.522 250C108.522 213.368 131.379 182.343 162.741 171.877C203.317 188.511 233.084 255.233 251.866 297.472L253.815 301.771C232.907 321.956 210.581 332.048 186.307 332.048ZM299.352 298.407C298.466 299.154 297.757 299.715 297.225 300.649C279.33 318.405 260.194 328.684 239.817 331.301C279.507 306.63 313.704 252.617 343.117 167.952H370.403C349.141 228.133 325.575 271.493 299.352 298.407ZM356.051 332.048C355.52 332.048 354.811 331.861 354.279 331.861C374.833 314.854 389.185 286.071 402.828 257.289H429.406C410.447 297.098 390.957 332.048 356.051 332.048Z" fill="white"/>
</g>
<defs>
<clipPath id="clip0_959_33515">
<rect width="500" height="500" fill="white"/>
</clipPath>
</defs>
</svg>
