<svg width="1904" height="510" viewBox="0 0 1904 510" fill="none" xmlns="http://www.w3.org/2000/svg">
<g clip-path="url(#clip0_1438_13175)">
<path d="M2323.71 19.5606C2315.57 5.59528 2300.45 -2.55145 2284.16 -2.55145H2006.15C1988.7 -2.55145 1972.41 7.92267 1964.27 23.0518C1859.57 231.368 1752.56 446.666 1589.7 523.476C1536.19 496.709 1488.5 453.65 1441.97 390.806C1624.6 201.11 1787.45 -93.326 1932.86 -497.156C1937.51 -511.122 1936.35 -527.414 1927.04 -540.216C1918.9 -553.017 1903.78 -560 1888.66 -560H1610.64C1590.86 -560 1573.41 -547.199 1566.44 -529.742C1475.7 -279.53 1380.31 -73.5415 1277.95 89.3872C1273.3 78.9132 1268.64 68.4391 1263.99 57.9651C1132.54 -231.815 982.482 -560 613.73 -560H335.713C3.02271 -560 -268.016 -288.84 -268.016 43.9996C-268.016 376.84 3.02271 648 335.713 648H613.73H891.748C1066.24 648 1225.6 583.992 1373.34 455.977C1473.38 587.484 1586.21 648 1726.96 648C2034.06 648 2181.8 351.237 2326.04 64.9482C2333.02 50.9828 2333.02 33.5259 2323.71 19.5606ZM1180.23 96.3696C1193.03 124.3 1205.83 152.231 1218.62 180.162C1188.38 222.058 1158.13 260.463 1126.73 295.376C1008.07 42.8362 845.218 -302.806 611.404 -465.734C612.568 -465.734 613.731 -465.734 614.894 -465.734C923.156 -466.898 1047.62 -193.411 1180.23 96.3696ZM-176.118 43.9996C-176.118 -222.505 28.6143 -441.295 289.183 -464.57C121.675 -357.503 10.0022 -170.135 10.0022 43.9996C10.0022 258.135 121.675 445.503 289.183 552.57C29.7775 529.295 -176.118 310.504 -176.118 43.9996ZM613.73 554.898C332.223 554.898 103.062 325.634 103.062 43.9996C103.062 -184.101 253.122 -377.287 459.018 -442.459C725.403 -338.883 920.829 76.5856 1044.13 339.599L1056.93 366.366C919.666 492.054 771.933 554.898 613.73 554.898ZM1643.21 -466.898H1822.35C1681.6 -92.1618 1526.88 177.834 1355.89 345.418C1355.89 345.418 1354.72 345.418 1354.72 346.582C1348.91 350.073 1345.42 354.728 1341.93 359.383C1224.44 469.942 1098.81 533.95 965.033 550.242C1225.6 396.624 1448.95 60.2929 1643.21 -466.898ZM1728.13 554.898C1724.64 554.898 1719.98 553.734 1716.5 553.734C1851.43 447.831 1945.66 268.609 2035.23 90.5507H2209.71C2084.08 337.271 1957.29 554.898 1728.13 554.898Z" fill="#F6F7F8"/>
</g>
<defs>
<clipPath id="clip0_1438_13175">
<rect width="1904" height="510" fill="white"/>
</clipPath>
</defs>
</svg>
