<svg width="80.000000" height="80.000000" viewBox="0 0 80 80" fill="none" xmlns="http://www.w3.org/2000/svg" xmlns:xlink="http://www.w3.org/1999/xlink">
	<defs>
		<clipPath id="clip1329_49849">
			<rect id="Icon / Icon Alfapol" width="80.000000" height="80.000000" fill="white" fill-opacity="0"/>
		</clipPath>
		<linearGradient id="paint_linear_60_8835_0" x1="40.000000" y1="60.878906" x2="40.000000" y2="66.878906" gradientUnits="userSpaceOnUse">
			<stop stop-color="#0E2245"/>
			<stop offset="1.000000" stop-color="#0E2245" stop-opacity="0.000000"/>
		</linearGradient>
		<linearGradient id="paint_linear_60_8836_0" x1="40.000031" y1="23.690491" x2="40.000031" y2="51.000015" gradientUnits="userSpaceOnUse">
			<stop stop-color="#0184FF"/>
			<stop offset="1.000000" stop-color="#0184FF" stop-opacity="0.000000"/>
		</linearGradient>
		<linearGradient id="paint_linear_60_8837_0" x1="40.000027" y1="14.000000" x2="40.000027" y2="21.047619" gradientUnits="userSpaceOnUse">
			<stop stop-color="#0184FF"/>
			<stop offset="1.000000" stop-color="#0184FF" stop-opacity="0.000000"/>
		</linearGradient>
	</defs>
	<rect id="Icon / Icon Alfapol" width="80.000000" height="80.000000" fill="#FFFFFF" fill-opacity="0"/>
	<g clip-path="url(#clip1329_49849)">
		<path id="Line 92" d="M40 61.4316L35.0527 66.3789M27 61.4316L22.0527 66.3789M14 61.4316L20.5 61.4316L27 61.4316L33.5 61.4316L40 61.4316L46.5 61.4316L53 61.4316L59.5 61.4316L66 61.4316L61.0527 66.3789M33.5 61.4316L28.5527 66.3789M20.5 61.4316L15.5527 66.3789M53 61.4316L48.0527 66.3789M46.5 61.4316L41.5527 66.3789M59.5 61.4316L54.5527 66.3789" stroke="url(#paint_linear_60_8835_0)" stroke-opacity="1.000000" stroke-width="1.500000" stroke-linejoin="round"/>
		<path id="magnet" d="M22.381 23.6905L22.381 33.2025C22.381 43.0318 30.2693 51 40 51C49.7307 51 57.619 43.0318 57.619 33.2025L57.619 23.6905M31.1906 23.6905L31.1906 33.2025C31.1906 38.1171 35.1346 42.1013 40 42.1013C44.8654 42.1013 48.8096 38.1171 48.8096 33.2025L48.8096 23.6905" stroke="url(#paint_linear_60_8836_0)" stroke-opacity="1.000000" stroke-width="1.500000" stroke-linejoin="round"/>
		<path id="magnet" d="M31.1906 21.0476L31.1906 14.8669C31.1906 14.3882 30.7961 14 30.3096 14L23.262 14C22.7754 14 22.381 14.3882 22.381 14.8669L22.381 21.0476M57.619 21.0476L57.619 14.8669C57.619 14.3882 57.2246 14 56.7382 14L49.6906 14C49.204 14 48.8096 14.3882 48.8096 14.8669L48.8096 21.0476" stroke="url(#paint_linear_60_8837_0)" stroke-opacity="1.000000" stroke-width="1.500000"/>
	</g>
</svg>
