<svg width="100.000000" height="100.645142" viewBox="0 0 100 100.645" fill="none" xmlns="http://www.w3.org/2000/svg" xmlns:xlink="http://www.w3.org/1999/xlink">
	<defs>
		<linearGradient id="paint_linear_2125_36601_0" x1="20.499977" y1="90.322556" x2="91.000015" y2="20.322586" gradientUnits="userSpaceOnUse">
			<stop stop-color="#0184FF"/>
			<stop offset="1.000000" stop-color="#0184FF" stop-opacity="0.000000"/>
		</linearGradient>
	</defs>
	<path id="Stroke 3" d="M35.1663 50.3234L45.0579 60.2109L64.8329 40.4359" stroke="#0E2245" stroke-opacity="1.000000" stroke-width="1.500000" stroke-linejoin="round" stroke-linecap="round"/>
	<path id="Star 1" d="M38.1589 12.3839C37.9302 12.617 37.6019 12.7236 37.2798 12.6696L21.6153 10.0403C21.0635 9.94769 20.5431 10.3258 20.4607 10.8792L18.1206 26.5895C18.0725 26.9126 17.8696 27.1918 17.5773 27.3374L3.35901 34.4177C2.85815 34.6671 2.65936 35.2789 2.91797 35.775L10.2591 49.8604C10.4101 50.15 10.4101 50.4951 10.2591 50.7847L2.91797 64.8701C2.65936 65.3663 2.85815 65.9781 3.35901 66.2275L17.5773 73.3077C17.8696 73.4534 18.0725 73.7325 18.1206 74.0556L20.4607 89.7659C20.5431 90.3193 21.0635 90.6974 21.6153 90.6048L37.2798 87.9756C37.6019 87.9215 37.9302 88.0281 38.1589 88.2612L49.2864 99.5957C49.6784 99.9949 50.3217 99.9949 50.7136 99.5957L61.8411 88.2612C62.0699 88.0281 62.3981 87.9215 62.7202 87.9756L78.3847 90.6048C78.9365 90.6974 79.4569 90.3193 79.5393 89.7659L81.8794 74.0556C81.9275 73.7325 82.1303 73.4534 82.4227 73.3077L96.641 66.2275C97.1418 65.9781 97.3406 65.3663 97.082 64.8701L89.7409 50.7847C89.5899 50.4951 89.5899 50.15 89.7409 49.8604L97.082 35.775C97.3406 35.2789 97.1418 34.6671 96.641 34.4177L82.4227 27.3373C82.1303 27.1918 81.9275 26.9126 81.8794 26.5895L79.5393 10.8792C79.4569 10.3258 78.9365 9.94769 78.3847 10.0403L62.7202 12.6696C62.3981 12.7236 62.0699 12.617 61.841 12.3839L50.7136 1.04944C50.3216 0.650208 49.6784 0.650208 49.2864 1.04944L38.1589 12.3839Z" stroke="url(#paint_linear_2125_36601_0)" stroke-opacity="1.000000" stroke-width="1.500000" stroke-linejoin="round"/>
</svg>
