<svg width="110.000000" height="110.000000" viewBox="0 0 110 110" fill="none" xmlns="http://www.w3.org/2000/svg" xmlns:xlink="http://www.w3.org/1999/xlink">
	<defs>
		<linearGradient id="paint_linear_386_13037_0" x1="28.000004" y1="15.000000" x2="28.000004" y2="39.197357" gradientUnits="userSpaceOnUse">
			<stop stop-color="#0184FF"/>
			<stop offset="1.000000" stop-color="#0184FF" stop-opacity="0.000000"/>
		</linearGradient>
		<linearGradient id="paint_linear_386_13038_0" x1="83.000000" y1="15.000000" x2="83.000000" y2="39.197357" gradientUnits="userSpaceOnUse">
			<stop stop-color="#0184FF"/>
			<stop offset="1.000000" stop-color="#0184FF" stop-opacity="0.000000"/>
		</linearGradient>
	</defs>
	<rect id="Iconly/Light/Scan" width="110.000000" height="110.000000" fill="#FFFFFF" fill-opacity="0"/>
	<path id="Stroke 1" d="M103.125 58.6923L6.875 58.6923" stroke="#0184FF" stroke-opacity="1.000000" stroke-width="1.650000" stroke-linejoin="round" stroke-linecap="round"/>
	<path id="Vector 189" d="M40 15L17 15C16.4477 15 16 15.4477 16 16L16 40" stroke="url(#paint_linear_386_13037_0)" stroke-opacity="1.000000" stroke-width="1.650000" stroke-linejoin="round" stroke-linecap="round"/>
	<path id="Vector 191" d="M40 95L17 95C16.4477 95 16 94.5523 16 94L16 59" stroke="#0184FF" stroke-opacity="1.000000" stroke-width="1.650000" stroke-linejoin="round" stroke-linecap="round"/>
	<path id="Vector 190" d="M71 15L94 15C94.5523 15 95 15.4477 95 16L95 40" stroke="url(#paint_linear_386_13038_0)" stroke-opacity="1.000000" stroke-width="1.650000" stroke-linejoin="round" stroke-linecap="round"/>
	<path id="Vector 192" d="M71 95L94 95C94.5523 95 95 94.5523 95 94L95 59" stroke="#0184FF" stroke-opacity="1.000000" stroke-width="1.650000" stroke-linejoin="round" stroke-linecap="round"/>
	<path id="Vector 186" d="M42.9004 46.475L67.1004 46.475L67.1004 48.1251L42.9004 48.1251L42.9004 46.475ZM42.9204 48.105L42.9004 48.1251C42.4384 48.1251 42.0754 47.762 42.0754 47.3C42.0754 46.8381 42.4384 46.475 42.9004 46.475L42.9204 46.4951L42.9204 48.105ZM67.0804 46.4951L67.1004 46.475C67.5624 46.475 67.9254 46.8381 67.9254 47.3C67.9254 47.762 67.5624 48.1251 67.1004 48.1251L67.0804 48.105L67.0804 46.4951Z" fill="#0E2245" fill-opacity="1.000000" fill-rule="evenodd"/>
	<path id="Vector 187" d="M42.9004 69.5749L67.1004 69.5749L67.1004 71.2249L42.9004 71.2249L42.9004 69.5749ZM42.9204 71.2049L42.9004 71.2249C42.4384 71.2249 42.0754 70.8619 42.0754 70.3999C42.0754 69.9379 42.4384 69.5749 42.9004 69.5749L42.9204 69.5949L42.9204 71.2049ZM67.0804 69.5949L67.1004 69.5749C67.5624 69.5749 67.9254 69.9379 67.9254 70.3999C67.9254 70.8619 67.5624 71.2249 67.1004 71.2249L67.0804 71.2049L67.0804 69.5949Z" fill="#0E2245" fill-opacity="1.000000" fill-rule="evenodd"/>
</svg>
