<svg width="110.000000" height="110.000000" viewBox="0 0 110 110" fill="none" xmlns="http://www.w3.org/2000/svg" xmlns:xlink="http://www.w3.org/1999/xlink">
	<defs>
		<linearGradient id="paint_linear_386_13017_0" x1="13.254553" y1="73.371658" x2="55.496975" y2="94.756699" gradientUnits="userSpaceOnUse">
			<stop stop-color="#0184FF"/>
			<stop offset="1.000000" stop-color="#0184FF" stop-opacity="0.000000"/>
		</linearGradient>
		<linearGradient id="paint_linear_386_13017_1" x1="95.750336" y1="12.200579" x2="97.738159" y2="55.467972" gradientUnits="userSpaceOnUse">
			<stop stop-color="#0184FF"/>
			<stop offset="1.000000" stop-color="#0184FF" stop-opacity="0.000000"/>
		</linearGradient>
	</defs>
	<path id="Vector 188" d="M96 55L96 20.5122C96 19.4029 95.0971 18.5123 93.9878 18.5123L15.9878 18.9879C14.888 18.9879 14 19.8881 14 20.9879L14 94C14 95.1046 14.8954 96 16 96L55 96" stroke="url(#paint_linear_386_13017_0)" stroke-opacity="1.000000" stroke-width="1.500000"/>
	<path id="Vector 188" d="M96 55L96 20.5122C96 19.4029 95.0971 18.5123 93.9878 18.5123L15.9878 18.9879C14.888 18.9879 14 19.8881 14 20.9879L14 94C14 95.1046 14.8954 96 16 96L55 96" stroke="url(#paint_linear_386_13017_1)" stroke-opacity="1.000000" stroke-width="1.500000"/>
	<path id="Vector 8" d="M36.668 13.75L36.668 27.5" stroke="#0E2245" stroke-opacity="1.000000" stroke-width="1.500000" stroke-linecap="round"/>
	<path id="Vector 10" d="M77.9154 45.8335L32.082 45.8335" stroke="#0184FF" stroke-opacity="1.000000" stroke-width="1.500000" stroke-linecap="round"/>
	<path id="Vector 9" d="M73.332 13.75L73.332 27.5" stroke="#0E2245" stroke-opacity="1.000000" stroke-width="1.500000" stroke-linecap="round"/>
	<path id="Ellipse 1" d="M82.5 96.25C74.9061 96.25 68.75 90.0939 68.75 82.5C68.75 74.9061 74.9061 68.75 82.5 68.75C90.0939 68.75 96.25 74.9061 96.25 82.5C96.25 90.0939 90.0939 96.25 82.5 96.25Z" stroke="#0E2245" stroke-opacity="1.000000" stroke-width="1.500000"/>
</svg>
