<svg width="80.000000" height="80.000000" viewBox="0 0 80 80" fill="none" xmlns="http://www.w3.org/2000/svg" xmlns:xlink="http://www.w3.org/1999/xlink">
	<defs>
		<clipPath id="clip1329_50907">
			<rect id="Icon / Icon Alfapol" width="80.000000" height="80.000000" fill="white" fill-opacity="0"/>
		</clipPath>
		<linearGradient id="paint_linear_60_8948_0" x1="11.524348" y1="38.623856" x2="28.489933" y2="38.623856" gradientUnits="userSpaceOnUse">
			<stop stop-color="#0184FF"/>
			<stop offset="1.000000" stop-color="#0184FF" stop-opacity="0.000000"/>
		</linearGradient>
		<linearGradient id="paint_linear_60_8950_0" x1="41.245239" y1="29.883728" x2="41.245239" y2="55.511627" gradientUnits="userSpaceOnUse">
			<stop stop-color="#0E2245" stop-opacity="0.000000"/>
			<stop offset="1.000000" stop-color="#0E2245"/>
		</linearGradient>
	</defs>
	<rect id="Icon / Icon Alfapol" width="80.000000" height="80.000000" fill="#FFFFFF" fill-opacity="0.600000"/>
	<g clip-path="url(#clip1329_50907)">
		<path id="Union" d="M28.0933 17.1887L22.2124 17.1887C21.7924 17.1887 21.4624 17.5187 21.4624 17.9387C21.4624 18.3587 21.7924 18.6887 22.2124 18.6887L28.0933 18.6887C28.5133 18.6887 28.8433 18.3587 28.8433 17.9387C28.8433 17.5187 28.5133 17.1887 28.0933 17.1887ZM16.3315 24.4292L28.0153 24.4292C28.4353 24.4292 28.7653 24.7592 28.7653 25.1792C28.7653 25.5992 28.4353 25.9292 28.0153 25.9292L16.3315 25.9292C15.9116 25.9292 15.5815 25.5992 15.5815 25.1792C15.5815 24.7592 15.9116 24.4292 16.3315 24.4292ZM28.0934 31.6696L19.272 31.6696C18.8521 31.6696 18.522 31.9996 18.522 32.4196C18.522 32.8396 18.8521 33.1696 19.272 33.1696L28.0934 33.1696C28.5133 33.1696 28.8434 32.8396 28.8434 32.4196C28.8434 31.9996 28.5133 31.6696 28.0934 31.6696ZM28.0934 38.9101L11.9209 38.9101C11.5009 38.9101 11.1709 39.2401 11.1709 39.6601C11.1709 40.0801 11.5009 40.4101 11.9209 40.4101L28.0934 40.4101C28.5134 40.4101 28.8434 40.0801 28.8434 39.6601C28.8434 39.2401 28.5134 38.9101 28.0934 38.9101Z" clip-rule="evenodd" fill="url(#paint_linear_60_8948_0)" fill-opacity="1.000000" fill-rule="evenodd"/>
		<path id="thermostat" d="M49.5701 46.0655C52.2817 48.4767 53.9839 51.9532 53.9839 55.8182C53.9839 63.0983 47.9448 69 40.4955 69C33.046 69 27.0071 63.0983 27.0071 55.8182C27.0071 51.9532 28.7092 48.4767 31.4209 46.0655C32.0142 45.538 32.4025 44.8028 32.4025 44.009L32.4025 18.9091C32.4025 14.541 36.0258 11 40.4955 11C44.9651 11 48.5885 14.541 48.5885 18.9091L48.5885 44.009C48.5885 44.8028 48.9768 45.538 49.5701 46.0655ZM51.5919 51.2774Q52.4838 53.3565 52.4839 55.8182Q52.4839 58.1272 51.6837 60.114Q50.8107 62.282 48.9847 64.0664Q47.3068 65.7062 45.2953 66.5629Q43.0948 67.5 40.4955 67.5Q37.8961 67.5 35.6957 66.5629Q33.6842 65.7062 32.0061 64.0664Q30.1803 62.282 29.3073 60.114Q28.5071 58.1272 28.5071 55.8182Q28.5071 53.3566 29.3989 51.2775Q30.3745 49.0031 32.4176 47.1865Q33.3086 46.3942 33.6649 45.4087Q33.9025 44.7518 33.9025 44.009L33.9025 18.9091Q33.9025 17.6499 34.3374 16.5652Q34.816 15.3717 35.8212 14.3893Q36.7406 13.4908 37.8428 13.0196Q39.058 12.5 40.4955 12.5Q41.9329 12.5 43.1482 13.0196Q44.2502 13.4908 45.1697 14.3893Q46.1749 15.3717 46.6536 16.5652Q47.0885 17.6499 47.0885 18.9091L47.0885 44.009Q47.0885 44.7518 47.326 45.4087Q47.6824 46.3942 48.5734 47.1865Q50.6163 49.003 51.5919 51.2774Z" fill="#0184FF" fill-opacity="1.000000" fill-rule="evenodd"/>
		<path id="Vector 248" d="M40.4952 55.5116L40.4952 29.8837" stroke="url(#paint_linear_60_8950_0)" stroke-opacity="1.000000" stroke-width="1.500000" stroke-linejoin="round" stroke-linecap="round"/>
		<path id="Vector" d="M70.66 29.01C70.3667 29.01 70.0967 28.9434 69.8501 28.81C69.6101 28.67 69.4167 28.4834 69.27 28.25C69.1234 28.01 69.05 27.7434 69.05 27.45C69.05 27.1567 69.1234 26.8934 69.27 26.66C69.4167 26.4267 69.6101 26.2434 69.8501 26.11C70.0967 25.97 70.3667 25.9 70.66 25.9C70.9534 25.9 71.2201 25.9667 71.4601 26.1C71.7001 26.2334 71.8934 26.42 72.04 26.66C72.1868 26.8934 72.26 27.1567 72.26 27.45C72.26 27.7434 72.1868 28.01 72.04 28.25C71.8934 28.4834 71.7001 28.67 71.4601 28.81C71.2201 28.9434 70.9534 29.01 70.66 29.01ZM70.66 28.21C70.8867 28.21 71.0701 28.14 71.2101 28C71.3501 27.86 71.42 27.6767 71.42 27.45C71.42 27.2234 71.3501 27.04 71.2101 26.9C71.0701 26.76 70.8867 26.69 70.66 26.69C70.4333 26.69 70.25 26.76 70.1101 26.9C69.9701 27.04 69.9 27.2234 69.9 27.45C69.9 27.6767 69.9701 27.86 70.1101 28C70.25 28.14 70.4333 28.21 70.66 28.21Z" fill="#0184FF" fill-opacity="1.000000" fill-rule="nonzero"/>
		<path id="Vector" d="M65.7677 33.1C65.2944 33.1 64.8911 33.03 64.5577 32.89C64.2244 32.75 63.951 32.5567 63.7377 32.31C63.5244 32.0634 63.3644 31.78 63.2577 31.46C63.1511 31.1334 63.0878 30.7867 63.0677 30.42C63.061 30.24 63.0544 30.0434 63.0477 29.83C63.0477 29.61 63.0477 29.39 63.0477 29.17C63.0544 28.95 63.061 28.7467 63.0677 28.56C63.0811 28.1934 63.1444 27.85 63.2577 27.53C63.3711 27.2034 63.5344 26.92 63.7477 26.68C63.9678 26.44 64.2444 26.25 64.5778 26.11C64.911 25.97 65.3077 25.9 65.7677 25.9C66.2344 25.9 66.6344 25.97 66.9678 26.11C67.301 26.25 67.5743 26.44 67.7877 26.68C68.0077 26.92 68.171 27.2034 68.2777 27.53C68.3911 27.85 68.4543 28.1934 68.4678 28.56C68.4811 28.7467 68.4877 28.95 68.4877 29.17C68.4877 29.39 68.4877 29.61 68.4877 29.83C68.4877 30.0434 68.4811 30.24 68.4678 30.42C68.4543 30.7867 68.3944 31.1334 68.2877 31.46C68.181 31.78 68.0211 32.0634 67.8077 32.31C67.5944 32.5567 67.3177 32.75 66.9778 32.89C66.6444 33.03 66.2411 33.1 65.7677 33.1ZM65.7677 31.95C66.201 31.95 66.5177 31.81 66.7178 31.53C66.9244 31.2434 67.031 30.8567 67.0377 30.37C67.051 30.1767 67.0577 29.9834 67.0577 29.79C67.0577 29.59 67.0577 29.39 67.0577 29.19C67.0577 28.99 67.051 28.8 67.0377 28.62C67.031 28.1467 66.9244 27.7667 66.7178 27.48C66.5177 27.1867 66.201 27.04 65.7677 27.04C65.3411 27.04 65.0244 27.1867 64.8177 27.48C64.6177 27.7667 64.5111 28.1467 64.4977 28.62C64.4977 28.8 64.4944 28.99 64.4877 29.19C64.4877 29.39 64.4877 29.59 64.4877 29.79C64.4944 29.9834 64.4977 30.1767 64.4977 30.37C64.5111 30.8567 64.6211 31.2434 64.8278 31.53C65.0344 31.81 65.3478 31.95 65.7677 31.95Z" fill="#0184FF" fill-opacity="1.000000" fill-rule="nonzero"/>
		<path id="Vector" d="M59.699 33.1C59.2323 33.1 58.829 33.0433 58.489 32.93C58.1489 32.8167 57.8656 32.67 57.639 32.49C57.4189 32.3033 57.2523 32.1033 57.139 31.89C57.0256 31.67 56.9657 31.4533 56.959 31.24C56.959 31.18 56.979 31.1333 57.019 31.1C57.0657 31.06 57.119 31.04 57.179 31.04L58.079 31.04C58.1456 31.04 58.2023 31.0533 58.249 31.08C58.2957 31.1067 58.3357 31.16 58.369 31.24C58.429 31.42 58.5256 31.5633 58.6589 31.67C58.799 31.7767 58.959 31.8533 59.139 31.9C59.319 31.94 59.509 31.96 59.709 31.96C60.109 31.96 60.4257 31.8667 60.6589 31.68C60.8989 31.4867 61.019 31.2133 61.019 30.86C61.019 30.5067 60.9089 30.2533 60.689 30.1C60.469 29.94 60.1624 29.86 59.769 29.86L58.739 29.86C58.6656 29.86 58.6056 29.84 58.559 29.8C58.5123 29.7533 58.489 29.6933 58.489 29.62L58.489 29.2C58.489 29.1333 58.5023 29.0767 58.5289 29.03C58.5624 28.9767 58.5957 28.9333 58.629 28.9L60.4189 27.15L57.559 27.15C57.4856 27.15 57.4257 27.1267 57.379 27.08C57.339 27.0333 57.319 26.9767 57.319 26.91L57.319 26.25C57.319 26.1767 57.339 26.1167 57.379 26.07C57.4257 26.0233 57.4856 26 57.559 26L61.849 26C61.9224 26 61.9823 26.0233 62.0289 26.07C62.0757 26.1167 62.099 26.1767 62.099 26.25L62.099 26.85C62.099 26.91 62.0857 26.9633 62.059 27.01C62.0323 27.0567 62.0023 27.0967 61.969 27.13L60.239 28.91L60.359 28.92C60.7656 28.9533 61.1256 29.0467 61.439 29.2C61.759 29.3467 62.0056 29.5633 62.179 29.85C62.359 30.1367 62.449 30.4967 62.449 30.93C62.449 31.3833 62.329 31.7733 62.089 32.1C61.8557 32.42 61.5323 32.6667 61.119 32.84C60.7057 33.0133 60.2323 33.1 59.699 33.1Z" fill="#0184FF" fill-opacity="1.000000" fill-rule="nonzero"/>
		<path id="Vector" d="M55.13 33C55.0566 33 54.9967 32.9767 54.9501 32.93C54.91 32.8833 54.89 32.8267 54.89 32.76L54.89 27.58L53.37 28.75C53.3101 28.79 53.25 28.8067 53.1901 28.8C53.13 28.7867 53.0767 28.75 53.03 28.69L52.61 28.15C52.5701 28.09 52.5533 28.0267 52.5601 27.96C52.5734 27.8933 52.61 27.84 52.67 27.8L54.91 26.07C54.9501 26.0367 54.99 26.0167 55.03 26.01C55.0701 26.0033 55.1134 26 55.16 26L56.04 26C56.1067 26 56.1633 26.0233 56.2101 26.07C56.2567 26.1167 56.28 26.1733 56.28 26.24L56.28 32.76C56.28 32.8267 56.2567 32.8833 56.2101 32.93C56.1633 32.9767 56.1067 33 56.04 33L55.13 33Z" fill="#0184FF" fill-opacity="1.000000" fill-rule="nonzero"/>
	</g>
</svg>
