<svg width="70.566406" height="85.000000" viewBox="0 0 70.5664 85" fill="none" xmlns="http://www.w3.org/2000/svg" xmlns:xlink="http://www.w3.org/1999/xlink">
	<defs/>
	<path id="Vector (Stroke)" d="M31.5967 0.130249C52.5088 -1.58862 70.124 13.9182 70.5654 33.9124L70.5664 33.9962C70.5664 40.9851 68.3447 47.517 64.4072 53.1262L64.3682 53.181L44.4707 80.5029C44.4307 80.5571 44.3906 80.6104 44.3477 80.6625C39.7744 86.3015 30.7793 86.6484 26.3838 80.4861L6.47949 53.1552C1.29102 45.9054 -1.43555 36.7523 0.769531 27.0656C3.48828 12.5409 16.3389 1.84827 31.4766 0.141968C31.5166 0.137451 31.5566 0.133545 31.5967 0.130249Z" fill="#0D4894" fill-opacity="1.000000" fill-rule="evenodd"/>
	<path id="Vector" d="M57.6162 34.8289C57.4756 34.5692 57.2148 34.4178 56.9336 34.4178L52.1309 34.4178C51.8301 34.4178 51.5488 34.6125 51.4082 34.8937C49.5996 38.7656 47.751 42.7673 44.9375 44.1949C44.0137 43.6975 43.1699 42.8971 42.3662 41.729C45.5205 38.2032 48.334 32.7306 50.8447 25.2247C50.9258 24.9651 50.9053 24.6624 50.7451 24.4243C50.6045 24.1864 50.3428 24.0566 50.082 24.0566L45.2793 24.0566C44.9385 24.0566 44.6367 24.2946 44.5156 24.619C42.9492 29.2697 41.3008 33.0984 39.5332 36.1267C39.4531 35.932 39.3721 35.7373 39.292 35.5426C37.0215 30.1565 34.4492 24.0566 28.0605 24.0566L23.2578 24.0566C17.5117 24.0566 12.8301 29.0967 12.8301 35.2831C12.8301 41.4695 17.5117 46.5095 23.2578 46.5095L32.8828 46.5095C35.8965 46.5095 38.6494 45.3198 41.2012 42.9404C42.9287 45.363 44.8779 46.5095 47.3086 46.5095C52.6133 46.5095 55.165 40.9937 57.6562 35.6724C57.7773 35.3912 57.7568 35.0884 57.6162 34.8289ZM28.0605 25.7871C33.4053 25.7871 35.5752 30.8704 37.8457 36.2565C38.0664 36.7756 38.2871 37.2947 38.5088 37.8138C37.9863 38.5925 37.4639 39.3064 36.9209 39.9553C34.8721 35.2615 32.0586 28.837 28.0205 25.8087C28.0205 25.7871 28.04 25.7871 28.0605 25.7871ZM14.4375 35.2831C14.4375 30.3296 17.9736 26.2629 22.4746 25.8303C19.5811 27.8204 17.6523 31.3246 17.6523 35.2831C17.6523 39.2632 19.5811 42.7457 22.4746 44.7357C17.9736 44.3031 14.4375 40.2366 14.4375 35.2831ZM28.0605 44.7791C23.1982 44.7791 19.2393 40.5177 19.2393 35.2831C19.2393 31.0435 21.832 27.4526 25.3877 26.2413C29.9893 28.1665 33.3643 35.8887 35.4941 40.7773L35.7158 41.2748C33.3447 43.611 30.8125 44.7791 28.0605 44.7791ZM40.8789 40.8855C40.7793 40.9719 40.6982 41.0369 40.6377 41.145C38.6084 43.2 36.4385 44.3896 34.1279 44.6925C38.6289 41.8372 42.5068 35.5859 45.8418 25.7871L48.9365 25.7871C46.5254 32.7522 43.8525 37.7706 40.8789 40.8855ZM47.3086 44.7791C47.249 44.7791 47.168 44.7573 47.1084 44.7573C49.4385 42.7889 51.0664 39.4578 52.6133 36.1267L55.627 36.1267C53.4775 40.734 51.2676 44.7791 47.3086 44.7791Z" fill="#FFFFFF" fill-opacity="1.000000" fill-rule="evenodd"/>
</svg>
